<mxfile host="app.diagrams.net" agent="Mozilla/5.0 (Windows NT 10.0; Win64; x64) AppleWebKit/537.36 (KHTML, like Gecko) Chrome/141.0.0.0 Safari/537.36" version="28.2.7">
  <diagram name="Page-1" id="01L3Us77JIkVz_aSmpqO">
    <mxGraphModel dx="1026" dy="507" grid="1" gridSize="10" guides="1" tooltips="1" connect="1" arrows="1" fold="1" page="1" pageScale="1" pageWidth="850" pageHeight="1100" math="0" shadow="0">
      <root>
        <mxCell id="0" />
        <mxCell id="1" parent="0" />
        <mxCell id="fpoi1ZFlEfsYuB7YviZU-2" style="edgeStyle=orthogonalEdgeStyle;rounded=0;orthogonalLoop=1;jettySize=auto;html=1;exitX=0.5;exitY=0;exitDx=0;exitDy=0;" edge="1" parent="1" source="fpoi1ZFlEfsYuB7YviZU-1">
          <mxGeometry relative="1" as="geometry">
            <mxPoint x="438" y="40" as="targetPoint" />
          </mxGeometry>
        </mxCell>
        <mxCell id="fpoi1ZFlEfsYuB7YviZU-1" value="Service Request Management System&lt;div&gt;(Web-based Platform)&lt;/div&gt;" style="swimlane;whiteSpace=wrap;html=1;startSize=40;" vertex="1" parent="1">
          <mxGeometry x="310" y="50" width="255" height="350" as="geometry" />
        </mxCell>
        <mxCell id="fpoi1ZFlEfsYuB7YviZU-5" value="Login/Register" style="ellipse;whiteSpace=wrap;html=1;" vertex="1" parent="fpoi1ZFlEfsYuB7YviZU-1">
          <mxGeometry x="5" y="50" width="95" height="50" as="geometry" />
        </mxCell>
        <mxCell id="fpoi1ZFlEfsYuB7YviZU-6" value="Submit Request" style="ellipse;whiteSpace=wrap;html=1;" vertex="1" parent="fpoi1ZFlEfsYuB7YviZU-1">
          <mxGeometry x="5" y="120" width="95" height="50" as="geometry" />
        </mxCell>
        <mxCell id="fpoi1ZFlEfsYuB7YviZU-7" value="View Request Status" style="ellipse;whiteSpace=wrap;html=1;" vertex="1" parent="fpoi1ZFlEfsYuB7YviZU-1">
          <mxGeometry y="200" width="110" height="50" as="geometry" />
        </mxCell>
        <mxCell id="fpoi1ZFlEfsYuB7YviZU-8" value="Provide Feedback/Close Request" style="ellipse;whiteSpace=wrap;html=1;" vertex="1" parent="fpoi1ZFlEfsYuB7YviZU-1">
          <mxGeometry x="2.5" y="280" width="105" height="50" as="geometry" />
        </mxCell>
        <mxCell id="fpoi1ZFlEfsYuB7YviZU-9" value="Attach Files" style="ellipse;whiteSpace=wrap;html=1;" vertex="1" parent="fpoi1ZFlEfsYuB7YviZU-1">
          <mxGeometry x="150" y="115" width="100" height="55" as="geometry" />
        </mxCell>
        <mxCell id="fpoi1ZFlEfsYuB7YviZU-10" value="Receive Notifications" style="ellipse;whiteSpace=wrap;html=1;" vertex="1" parent="fpoi1ZFlEfsYuB7YviZU-1">
          <mxGeometry x="150" y="200" width="100" height="50" as="geometry" />
        </mxCell>
        <mxCell id="fpoi1ZFlEfsYuB7YviZU-11" value="&amp;lt;&amp;lt;extends&amp;gt;&amp;gt;" style="endArrow=open;endSize=12;dashed=1;html=1;rounded=0;entryX=0;entryY=0.5;entryDx=0;entryDy=0;exitX=1;exitY=0.5;exitDx=0;exitDy=0;" edge="1" parent="fpoi1ZFlEfsYuB7YviZU-1" source="fpoi1ZFlEfsYuB7YviZU-6" target="fpoi1ZFlEfsYuB7YviZU-9">
          <mxGeometry x="-0.1521" y="24" width="160" relative="1" as="geometry">
            <mxPoint x="115" y="180" as="sourcePoint" />
            <mxPoint x="145" y="140" as="targetPoint" />
            <mxPoint as="offset" />
          </mxGeometry>
        </mxCell>
        <mxCell id="fpoi1ZFlEfsYuB7YviZU-18" value="&amp;lt;&amp;lt;extends&amp;gt;&amp;gt;" style="endArrow=open;endSize=12;dashed=1;html=1;rounded=0;entryX=0;entryY=0.5;entryDx=0;entryDy=0;exitX=1;exitY=0.5;exitDx=0;exitDy=0;" edge="1" parent="fpoi1ZFlEfsYuB7YviZU-1" source="fpoi1ZFlEfsYuB7YviZU-7" target="fpoi1ZFlEfsYuB7YviZU-10">
          <mxGeometry y="25" width="160" relative="1" as="geometry">
            <mxPoint x="40" y="190" as="sourcePoint" />
            <mxPoint x="200" y="190" as="targetPoint" />
            <mxPoint as="offset" />
          </mxGeometry>
        </mxCell>
        <mxCell id="fpoi1ZFlEfsYuB7YviZU-3" value="End User/Customer" style="shape=umlActor;verticalLabelPosition=bottom;verticalAlign=top;html=1;outlineConnect=0;" vertex="1" parent="1">
          <mxGeometry x="170" y="160" width="50" height="90" as="geometry" />
        </mxCell>
        <mxCell id="fpoi1ZFlEfsYuB7YviZU-14" value="" style="endArrow=none;html=1;rounded=0;exitX=0;exitY=0.5;exitDx=0;exitDy=0;" edge="1" parent="1" source="fpoi1ZFlEfsYuB7YviZU-5">
          <mxGeometry width="50" height="50" relative="1" as="geometry">
            <mxPoint x="400" y="270" as="sourcePoint" />
            <mxPoint x="315" y="200" as="targetPoint" />
            <Array as="points">
              <mxPoint x="220" y="190" />
            </Array>
          </mxGeometry>
        </mxCell>
        <mxCell id="fpoi1ZFlEfsYuB7YviZU-15" value="" style="endArrow=none;html=1;rounded=0;exitX=0;exitY=0.5;exitDx=0;exitDy=0;" edge="1" parent="1" source="fpoi1ZFlEfsYuB7YviZU-7">
          <mxGeometry width="50" height="50" relative="1" as="geometry">
            <mxPoint x="400" y="270" as="sourcePoint" />
            <mxPoint x="220" y="190" as="targetPoint" />
          </mxGeometry>
        </mxCell>
        <mxCell id="fpoi1ZFlEfsYuB7YviZU-16" value="" style="endArrow=none;html=1;rounded=0;exitX=0;exitY=0.5;exitDx=0;exitDy=0;" edge="1" parent="1" source="fpoi1ZFlEfsYuB7YviZU-8">
          <mxGeometry width="50" height="50" relative="1" as="geometry">
            <mxPoint x="400" y="270" as="sourcePoint" />
            <mxPoint x="220" y="190" as="targetPoint" />
          </mxGeometry>
        </mxCell>
        <mxCell id="fpoi1ZFlEfsYuB7YviZU-19" value="" style="swimlane;startSize=0;" vertex="1" parent="1">
          <mxGeometry x="310" y="400" width="260" height="550" as="geometry" />
        </mxCell>
        <mxCell id="fpoi1ZFlEfsYuB7YviZU-22" value="Login" style="ellipse;whiteSpace=wrap;html=1;" vertex="1" parent="fpoi1ZFlEfsYuB7YviZU-19">
          <mxGeometry x="10" y="10" width="90" height="40" as="geometry" />
        </mxCell>
        <mxCell id="fpoi1ZFlEfsYuB7YviZU-23" value="View Assigned Request" style="ellipse;whiteSpace=wrap;html=1;" vertex="1" parent="fpoi1ZFlEfsYuB7YviZU-19">
          <mxGeometry x="5" y="80" width="95" height="50" as="geometry" />
        </mxCell>
        <mxCell id="fpoi1ZFlEfsYuB7YviZU-24" value="Assign Request to Staff" style="ellipse;whiteSpace=wrap;html=1;" vertex="1" parent="fpoi1ZFlEfsYuB7YviZU-19">
          <mxGeometry x="5" y="150" width="95" height="60" as="geometry" />
        </mxCell>
        <mxCell id="fpoi1ZFlEfsYuB7YviZU-25" value="Update Request Status" style="ellipse;whiteSpace=wrap;html=1;" vertex="1" parent="fpoi1ZFlEfsYuB7YviZU-19">
          <mxGeometry x="5" y="230" width="105" height="60" as="geometry" />
        </mxCell>
        <mxCell id="fpoi1ZFlEfsYuB7YviZU-26" value="Close Request" style="ellipse;whiteSpace=wrap;html=1;" vertex="1" parent="fpoi1ZFlEfsYuB7YviZU-19">
          <mxGeometry y="310" width="110" height="60" as="geometry" />
        </mxCell>
        <mxCell id="fpoi1ZFlEfsYuB7YviZU-27" value="Add Internal Notes" style="ellipse;whiteSpace=wrap;html=1;" vertex="1" parent="fpoi1ZFlEfsYuB7YviZU-19">
          <mxGeometry x="5" y="390" width="105" height="60" as="geometry" />
        </mxCell>
        <mxCell id="fpoi1ZFlEfsYuB7YviZU-28" value="Generate Simple Reports" style="ellipse;whiteSpace=wrap;html=1;" vertex="1" parent="fpoi1ZFlEfsYuB7YviZU-19">
          <mxGeometry x="5" y="470" width="105" height="70" as="geometry" />
        </mxCell>
        <mxCell id="fpoi1ZFlEfsYuB7YviZU-29" value="Set Priority Level" style="ellipse;whiteSpace=wrap;html=1;" vertex="1" parent="fpoi1ZFlEfsYuB7YviZU-19">
          <mxGeometry x="160" y="150" width="100" height="50" as="geometry" />
        </mxCell>
        <mxCell id="fpoi1ZFlEfsYuB7YviZU-30" value="Communicate with User" style="ellipse;whiteSpace=wrap;html=1;" vertex="1" parent="fpoi1ZFlEfsYuB7YviZU-19">
          <mxGeometry x="160" y="230" width="90" height="60" as="geometry" />
        </mxCell>
        <mxCell id="fpoi1ZFlEfsYuB7YviZU-38" value="&amp;lt;&amp;lt;extends&amp;gt;&amp;gt;" style="endArrow=open;endSize=12;dashed=1;html=1;rounded=0;exitX=1;exitY=0.5;exitDx=0;exitDy=0;entryX=0.05;entryY=0.64;entryDx=0;entryDy=0;entryPerimeter=0;" edge="1" parent="fpoi1ZFlEfsYuB7YviZU-19" source="fpoi1ZFlEfsYuB7YviZU-24" target="fpoi1ZFlEfsYuB7YviZU-29">
          <mxGeometry x="-0.0967" y="21" width="160" relative="1" as="geometry">
            <mxPoint x="100" y="170" as="sourcePoint" />
            <mxPoint x="160" y="175" as="targetPoint" />
            <mxPoint as="offset" />
          </mxGeometry>
        </mxCell>
        <mxCell id="fpoi1ZFlEfsYuB7YviZU-39" value="&amp;lt;&amp;lt;extends&amp;gt;&amp;gt;" style="endArrow=open;endSize=12;dashed=1;html=1;rounded=0;entryX=0;entryY=0.5;entryDx=0;entryDy=0;exitX=1;exitY=0.5;exitDx=0;exitDy=0;" edge="1" parent="fpoi1ZFlEfsYuB7YviZU-19" source="fpoi1ZFlEfsYuB7YviZU-25" target="fpoi1ZFlEfsYuB7YviZU-30">
          <mxGeometry x="-0.2" y="30" width="160" relative="1" as="geometry">
            <mxPoint x="40" y="270" as="sourcePoint" />
            <mxPoint x="200" y="270" as="targetPoint" />
            <mxPoint as="offset" />
          </mxGeometry>
        </mxCell>
        <mxCell id="fpoi1ZFlEfsYuB7YviZU-20" value="Support Staff/Admin&lt;div&gt;&lt;br&gt;&lt;/div&gt;" style="shape=umlActor;verticalLabelPosition=bottom;verticalAlign=top;html=1;outlineConnect=0;" vertex="1" parent="1">
          <mxGeometry x="85" y="580" width="70" height="130" as="geometry" />
        </mxCell>
        <mxCell id="fpoi1ZFlEfsYuB7YviZU-31" value="" style="endArrow=none;html=1;rounded=0;entryX=1;entryY=0.3333333333333333;entryDx=0;entryDy=0;entryPerimeter=0;exitX=0;exitY=0.5;exitDx=0;exitDy=0;" edge="1" parent="1" source="fpoi1ZFlEfsYuB7YviZU-22" target="fpoi1ZFlEfsYuB7YviZU-20">
          <mxGeometry width="50" height="50" relative="1" as="geometry">
            <mxPoint x="400" y="610" as="sourcePoint" />
            <mxPoint x="450" y="560" as="targetPoint" />
          </mxGeometry>
        </mxCell>
        <mxCell id="fpoi1ZFlEfsYuB7YviZU-32" value="" style="endArrow=none;html=1;rounded=0;entryX=1;entryY=0.3333333333333333;entryDx=0;entryDy=0;entryPerimeter=0;exitX=0;exitY=0.5;exitDx=0;exitDy=0;" edge="1" parent="1" source="fpoi1ZFlEfsYuB7YviZU-23" target="fpoi1ZFlEfsYuB7YviZU-20">
          <mxGeometry width="50" height="50" relative="1" as="geometry">
            <mxPoint x="400" y="610" as="sourcePoint" />
            <mxPoint x="450" y="560" as="targetPoint" />
          </mxGeometry>
        </mxCell>
        <mxCell id="fpoi1ZFlEfsYuB7YviZU-33" value="" style="endArrow=none;html=1;rounded=0;entryX=1;entryY=0.3333333333333333;entryDx=0;entryDy=0;entryPerimeter=0;exitX=0;exitY=0.5;exitDx=0;exitDy=0;" edge="1" parent="1" source="fpoi1ZFlEfsYuB7YviZU-24" target="fpoi1ZFlEfsYuB7YviZU-20">
          <mxGeometry width="50" height="50" relative="1" as="geometry">
            <mxPoint x="400" y="610" as="sourcePoint" />
            <mxPoint x="450" y="560" as="targetPoint" />
          </mxGeometry>
        </mxCell>
        <mxCell id="fpoi1ZFlEfsYuB7YviZU-34" value="" style="endArrow=none;html=1;rounded=0;exitX=0;exitY=0.5;exitDx=0;exitDy=0;entryX=1;entryY=0.3333333333333333;entryDx=0;entryDy=0;entryPerimeter=0;" edge="1" parent="1" source="fpoi1ZFlEfsYuB7YviZU-25" target="fpoi1ZFlEfsYuB7YviZU-20">
          <mxGeometry width="50" height="50" relative="1" as="geometry">
            <mxPoint x="400" y="610" as="sourcePoint" />
            <mxPoint x="220" y="560" as="targetPoint" />
          </mxGeometry>
        </mxCell>
        <mxCell id="fpoi1ZFlEfsYuB7YviZU-35" value="" style="endArrow=none;html=1;rounded=0;exitX=0;exitY=0.616;exitDx=0;exitDy=0;exitPerimeter=0;entryX=1;entryY=0.3333333333333333;entryDx=0;entryDy=0;entryPerimeter=0;" edge="1" parent="1" source="fpoi1ZFlEfsYuB7YviZU-19" target="fpoi1ZFlEfsYuB7YviZU-20">
          <mxGeometry width="50" height="50" relative="1" as="geometry">
            <mxPoint x="400" y="800" as="sourcePoint" />
            <mxPoint x="210" y="560" as="targetPoint" />
          </mxGeometry>
        </mxCell>
        <mxCell id="fpoi1ZFlEfsYuB7YviZU-36" value="" style="endArrow=none;html=1;rounded=0;exitX=0.038;exitY=0.667;exitDx=0;exitDy=0;exitPerimeter=0;entryX=1;entryY=0.3333333333333333;entryDx=0;entryDy=0;entryPerimeter=0;" edge="1" parent="1" source="fpoi1ZFlEfsYuB7YviZU-27" target="fpoi1ZFlEfsYuB7YviZU-20">
          <mxGeometry width="50" height="50" relative="1" as="geometry">
            <mxPoint x="400" y="800" as="sourcePoint" />
            <mxPoint x="210" y="560" as="targetPoint" />
          </mxGeometry>
        </mxCell>
        <mxCell id="fpoi1ZFlEfsYuB7YviZU-37" value="" style="endArrow=none;html=1;rounded=0;exitX=0.038;exitY=0.371;exitDx=0;exitDy=0;exitPerimeter=0;entryX=1;entryY=0.3333333333333333;entryDx=0;entryDy=0;entryPerimeter=0;" edge="1" parent="1" source="fpoi1ZFlEfsYuB7YviZU-28" target="fpoi1ZFlEfsYuB7YviZU-20">
          <mxGeometry width="50" height="50" relative="1" as="geometry">
            <mxPoint x="400" y="800" as="sourcePoint" />
            <mxPoint x="210" y="560" as="targetPoint" />
          </mxGeometry>
        </mxCell>
        <mxCell id="fpoi1ZFlEfsYuB7YviZU-40" value="Manager/Supervisor" style="shape=umlActor;verticalLabelPosition=bottom;verticalAlign=top;html=1;outlineConnect=0;" vertex="1" parent="1">
          <mxGeometry x="70" y="340" width="100" height="140" as="geometry" />
        </mxCell>
        <mxCell id="fpoi1ZFlEfsYuB7YviZU-51" value="" style="endArrow=none;html=1;edgeStyle=orthogonalEdgeStyle;rounded=0;entryX=0.5;entryY=0;entryDx=0;entryDy=0;entryPerimeter=0;exitX=0.53;exitY=0.693;exitDx=0;exitDy=0;exitPerimeter=0;" edge="1" parent="1" source="fpoi1ZFlEfsYuB7YviZU-40" target="fpoi1ZFlEfsYuB7YviZU-20">
          <mxGeometry relative="1" as="geometry">
            <mxPoint x="100" y="450" as="sourcePoint" />
            <mxPoint x="260" y="450" as="targetPoint" />
          </mxGeometry>
        </mxCell>
        <mxCell id="fpoi1ZFlEfsYuB7YviZU-52" value="parent" style="edgeLabel;resizable=0;html=1;align=left;verticalAlign=bottom;" connectable="0" vertex="1" parent="fpoi1ZFlEfsYuB7YviZU-51">
          <mxGeometry x="-1" relative="1" as="geometry" />
        </mxCell>
        <mxCell id="fpoi1ZFlEfsYuB7YviZU-53" value="child" style="edgeLabel;resizable=0;html=1;align=right;verticalAlign=bottom;" connectable="0" vertex="1" parent="fpoi1ZFlEfsYuB7YviZU-51">
          <mxGeometry x="1" relative="1" as="geometry" />
        </mxCell>
        <mxCell id="fpoi1ZFlEfsYuB7YviZU-54" value="System Administrator&lt;div&gt;&lt;br&gt;&lt;/div&gt;" style="shape=umlActor;verticalLabelPosition=bottom;verticalAlign=top;html=1;outlineConnect=0;" vertex="1" parent="1">
          <mxGeometry x="740" y="60" width="100" height="110" as="geometry" />
        </mxCell>
        <mxCell id="fpoi1ZFlEfsYuB7YviZU-56" value="Login (Admin Access)" style="ellipse;whiteSpace=wrap;html=1;" vertex="1" parent="1">
          <mxGeometry x="600" y="190" width="120" height="60" as="geometry" />
        </mxCell>
        <mxCell id="fpoi1ZFlEfsYuB7YviZU-57" value="Manage User Accounts" style="ellipse;whiteSpace=wrap;html=1;" vertex="1" parent="1">
          <mxGeometry x="810" y="190" width="120" height="60" as="geometry" />
        </mxCell>
        <mxCell id="fpoi1ZFlEfsYuB7YviZU-58" value="Monitor System Activity Logs" style="ellipse;whiteSpace=wrap;html=1;" vertex="1" parent="1">
          <mxGeometry x="600" y="300" width="120" height="60" as="geometry" />
        </mxCell>
        <mxCell id="fpoi1ZFlEfsYuB7YviZU-59" value="Assign Roles and Permissions" style="ellipse;whiteSpace=wrap;html=1;" vertex="1" parent="1">
          <mxGeometry x="760" y="270" width="130" height="50" as="geometry" />
        </mxCell>
        <mxCell id="fpoi1ZFlEfsYuB7YviZU-60" value="" style="endArrow=none;html=1;rounded=0;entryX=0;entryY=0.5;entryDx=0;entryDy=0;exitX=1;exitY=0.5;exitDx=0;exitDy=0;" edge="1" parent="1" source="fpoi1ZFlEfsYuB7YviZU-56" target="fpoi1ZFlEfsYuB7YviZU-57">
          <mxGeometry width="50" height="50" relative="1" as="geometry">
            <mxPoint x="720" y="300" as="sourcePoint" />
            <mxPoint x="770" y="250" as="targetPoint" />
          </mxGeometry>
        </mxCell>
        <mxCell id="fpoi1ZFlEfsYuB7YviZU-61" value="" style="endArrow=none;html=1;rounded=0;entryX=0.5;entryY=1;entryDx=0;entryDy=0;exitX=0.5;exitY=0;exitDx=0;exitDy=0;" edge="1" parent="1" source="fpoi1ZFlEfsYuB7YviZU-58" target="fpoi1ZFlEfsYuB7YviZU-56">
          <mxGeometry width="50" height="50" relative="1" as="geometry">
            <mxPoint x="720" y="300" as="sourcePoint" />
            <mxPoint x="770" y="250" as="targetPoint" />
          </mxGeometry>
        </mxCell>
        <mxCell id="fpoi1ZFlEfsYuB7YviZU-63" value="IT Team" style="ellipse;whiteSpace=wrap;html=1;" vertex="1" parent="1">
          <mxGeometry x="770" y="370" width="130" height="40" as="geometry" />
        </mxCell>
        <mxCell id="fpoi1ZFlEfsYuB7YviZU-66" value="&amp;lt;&amp;lt;include&amp;gt;&amp;gt;" style="endArrow=open;endSize=12;dashed=1;html=1;rounded=0;exitX=0.317;exitY=0.983;exitDx=0;exitDy=0;exitPerimeter=0;entryX=0.754;entryY=0.12;entryDx=0;entryDy=0;entryPerimeter=0;" edge="1" parent="1" source="fpoi1ZFlEfsYuB7YviZU-57" target="fpoi1ZFlEfsYuB7YviZU-59">
          <mxGeometry x="1" y="42" width="160" relative="1" as="geometry">
            <mxPoint x="670" y="280" as="sourcePoint" />
            <mxPoint x="830" y="280" as="targetPoint" />
            <mxPoint x="3" y="8" as="offset" />
          </mxGeometry>
        </mxCell>
        <mxCell id="fpoi1ZFlEfsYuB7YviZU-67" value="Backup and Restore Data" style="ellipse;whiteSpace=wrap;html=1;" vertex="1" parent="1">
          <mxGeometry x="605" y="410" width="125" height="60" as="geometry" />
        </mxCell>
        <mxCell id="fpoi1ZFlEfsYuB7YviZU-68" value="Extends" style="endArrow=block;endSize=16;endFill=0;html=1;rounded=0;exitX=0.5;exitY=1;exitDx=0;exitDy=0;entryX=0.5;entryY=0;entryDx=0;entryDy=0;" edge="1" parent="1" source="fpoi1ZFlEfsYuB7YviZU-58" target="fpoi1ZFlEfsYuB7YviZU-67">
          <mxGeometry width="160" relative="1" as="geometry">
            <mxPoint x="670" y="280" as="sourcePoint" />
            <mxPoint x="830" y="280" as="targetPoint" />
          </mxGeometry>
        </mxCell>
        <mxCell id="fpoi1ZFlEfsYuB7YviZU-69" value="Configure Notification/Integrations" style="ellipse;whiteSpace=wrap;html=1;" vertex="1" parent="1">
          <mxGeometry x="1030" y="180" width="140" height="80" as="geometry" />
        </mxCell>
        <mxCell id="fpoi1ZFlEfsYuB7YviZU-70" value="Manage System Settings" style="ellipse;whiteSpace=wrap;html=1;" vertex="1" parent="1">
          <mxGeometry x="1250" y="190" width="130" height="60" as="geometry" />
        </mxCell>
        <mxCell id="fpoi1ZFlEfsYuB7YviZU-71" value="" style="endArrow=none;html=1;rounded=0;exitX=1;exitY=0.5;exitDx=0;exitDy=0;entryX=0;entryY=0.5;entryDx=0;entryDy=0;" edge="1" parent="1" source="fpoi1ZFlEfsYuB7YviZU-57" target="fpoi1ZFlEfsYuB7YviZU-69">
          <mxGeometry width="50" height="50" relative="1" as="geometry">
            <mxPoint x="950" y="300" as="sourcePoint" />
            <mxPoint x="1000" y="250" as="targetPoint" />
          </mxGeometry>
        </mxCell>
        <mxCell id="fpoi1ZFlEfsYuB7YviZU-72" value="" style="endArrow=none;html=1;rounded=0;entryX=0;entryY=0.5;entryDx=0;entryDy=0;exitX=1;exitY=0.5;exitDx=0;exitDy=0;" edge="1" parent="1" source="fpoi1ZFlEfsYuB7YviZU-69" target="fpoi1ZFlEfsYuB7YviZU-70">
          <mxGeometry width="50" height="50" relative="1" as="geometry">
            <mxPoint x="950" y="300" as="sourcePoint" />
            <mxPoint x="1000" y="250" as="targetPoint" />
          </mxGeometry>
        </mxCell>
        <mxCell id="fpoi1ZFlEfsYuB7YviZU-74" value="" style="endArrow=block;dashed=1;endFill=0;endSize=12;html=1;rounded=0;exitX=0.5;exitY=1;exitDx=0;exitDy=0;entryX=0.5;entryY=0;entryDx=0;entryDy=0;" edge="1" parent="1" source="fpoi1ZFlEfsYuB7YviZU-59" target="fpoi1ZFlEfsYuB7YviZU-63">
          <mxGeometry width="160" relative="1" as="geometry">
            <mxPoint x="900" y="280" as="sourcePoint" />
            <mxPoint x="1060" y="280" as="targetPoint" />
          </mxGeometry>
        </mxCell>
        <mxCell id="fpoi1ZFlEfsYuB7YviZU-75" value="Deploy System Updates" style="ellipse;whiteSpace=wrap;html=1;" vertex="1" parent="1">
          <mxGeometry x="770" y="460" width="120" height="60" as="geometry" />
        </mxCell>
        <mxCell id="fpoi1ZFlEfsYuB7YviZU-76" value="" style="endArrow=none;html=1;rounded=0;entryX=0.5;entryY=1;entryDx=0;entryDy=0;exitX=0.5;exitY=0;exitDx=0;exitDy=0;" edge="1" parent="1" source="fpoi1ZFlEfsYuB7YviZU-75" target="fpoi1ZFlEfsYuB7YviZU-63">
          <mxGeometry width="50" height="50" relative="1" as="geometry">
            <mxPoint x="950" y="520" as="sourcePoint" />
            <mxPoint x="1000" y="470" as="targetPoint" />
          </mxGeometry>
        </mxCell>
        <mxCell id="fpoi1ZFlEfsYuB7YviZU-77" value="Integrate Third-Party Tools" style="ellipse;whiteSpace=wrap;html=1;" vertex="1" parent="1">
          <mxGeometry x="990" y="455" width="130" height="70" as="geometry" />
        </mxCell>
        <mxCell id="fpoi1ZFlEfsYuB7YviZU-78" value="Monitor Server Performance" style="ellipse;whiteSpace=wrap;html=1;" vertex="1" parent="1">
          <mxGeometry x="770" y="580" width="120" height="70" as="geometry" />
        </mxCell>
        <mxCell id="fpoi1ZFlEfsYuB7YviZU-79" value="" style="endArrow=none;html=1;rounded=0;entryX=0.5;entryY=1;entryDx=0;entryDy=0;exitX=0.5;exitY=0;exitDx=0;exitDy=0;" edge="1" parent="1" source="fpoi1ZFlEfsYuB7YviZU-78" target="fpoi1ZFlEfsYuB7YviZU-75">
          <mxGeometry width="50" height="50" relative="1" as="geometry">
            <mxPoint x="950" y="520" as="sourcePoint" />
            <mxPoint x="1000" y="470" as="targetPoint" />
          </mxGeometry>
        </mxCell>
        <mxCell id="fpoi1ZFlEfsYuB7YviZU-80" value="Perform Data Backup and Revovery" style="ellipse;whiteSpace=wrap;html=1;" vertex="1" parent="1">
          <mxGeometry x="1010" y="575" width="120" height="80" as="geometry" />
        </mxCell>
        <mxCell id="fpoi1ZFlEfsYuB7YviZU-81" value="Resolve Technical Issues" style="ellipse;whiteSpace=wrap;html=1;" vertex="1" parent="1">
          <mxGeometry x="980" y="360" width="120" height="60" as="geometry" />
        </mxCell>
        <mxCell id="fpoi1ZFlEfsYuB7YviZU-82" value="" style="endArrow=none;html=1;rounded=0;exitX=1;exitY=0.5;exitDx=0;exitDy=0;entryX=0;entryY=0.5;entryDx=0;entryDy=0;" edge="1" parent="1" source="fpoi1ZFlEfsYuB7YviZU-63" target="fpoi1ZFlEfsYuB7YviZU-81">
          <mxGeometry width="50" height="50" relative="1" as="geometry">
            <mxPoint x="950" y="520" as="sourcePoint" />
            <mxPoint x="1000" y="470" as="targetPoint" />
          </mxGeometry>
        </mxCell>
        <mxCell id="fpoi1ZFlEfsYuB7YviZU-83" value="Maintain Security Protocols and Access Controls" style="ellipse;whiteSpace=wrap;html=1;" vertex="1" parent="1">
          <mxGeometry x="1170" y="360" width="120" height="70" as="geometry" />
        </mxCell>
        <mxCell id="fpoi1ZFlEfsYuB7YviZU-84" value="" style="endArrow=none;html=1;rounded=0;entryX=1;entryY=0.5;entryDx=0;entryDy=0;exitX=0.008;exitY=0.414;exitDx=0;exitDy=0;exitPerimeter=0;" edge="1" parent="1" source="fpoi1ZFlEfsYuB7YviZU-83" target="fpoi1ZFlEfsYuB7YviZU-81">
          <mxGeometry width="50" height="50" relative="1" as="geometry">
            <mxPoint x="950" y="520" as="sourcePoint" />
            <mxPoint x="1000" y="470" as="targetPoint" />
          </mxGeometry>
        </mxCell>
        <mxCell id="fpoi1ZFlEfsYuB7YviZU-86" value="Extends" style="endArrow=block;endSize=16;endFill=0;html=1;rounded=0;exitX=1;exitY=0.5;exitDx=0;exitDy=0;entryX=0;entryY=0.5;entryDx=0;entryDy=0;" edge="1" parent="1" source="fpoi1ZFlEfsYuB7YviZU-75" target="fpoi1ZFlEfsYuB7YviZU-77">
          <mxGeometry width="160" relative="1" as="geometry">
            <mxPoint x="900" y="500" as="sourcePoint" />
            <mxPoint x="1060" y="500" as="targetPoint" />
          </mxGeometry>
        </mxCell>
        <mxCell id="fpoi1ZFlEfsYuB7YviZU-87" value="&amp;lt;&amp;lt;include&amp;gt;&amp;gt;" style="endArrow=open;endSize=12;dashed=1;html=1;rounded=0;exitX=1;exitY=0.5;exitDx=0;exitDy=0;entryX=0;entryY=0.5;entryDx=0;entryDy=0;" edge="1" parent="1" source="fpoi1ZFlEfsYuB7YviZU-78" target="fpoi1ZFlEfsYuB7YviZU-80">
          <mxGeometry y="25" width="160" relative="1" as="geometry">
            <mxPoint x="900" y="500" as="sourcePoint" />
            <mxPoint x="1060" y="500" as="targetPoint" />
            <mxPoint as="offset" />
          </mxGeometry>
        </mxCell>
        <mxCell id="fpoi1ZFlEfsYuB7YviZU-88" value="Project Sponsor/Requester" style="shape=umlActor;verticalLabelPosition=bottom;verticalAlign=top;html=1;outlineConnect=0;" vertex="1" parent="1">
          <mxGeometry x="870" y="740" width="80" height="130" as="geometry" />
        </mxCell>
        <mxCell id="fpoi1ZFlEfsYuB7YviZU-90" value="Review Project Reports" style="ellipse;whiteSpace=wrap;html=1;" vertex="1" parent="1">
          <mxGeometry x="720" y="920" width="120" height="70" as="geometry" />
        </mxCell>
        <mxCell id="fpoi1ZFlEfsYuB7YviZU-91" value="Receive Performance Summaries" style="ellipse;whiteSpace=wrap;html=1;" vertex="1" parent="1">
          <mxGeometry x="960" y="910" width="130" height="80" as="geometry" />
        </mxCell>
        <mxCell id="fpoi1ZFlEfsYuB7YviZU-92" value="Approve Funding/Resources" style="ellipse;whiteSpace=wrap;html=1;" vertex="1" parent="1">
          <mxGeometry x="720" y="1050" width="120" height="80" as="geometry" />
        </mxCell>
        <mxCell id="fpoi1ZFlEfsYuB7YviZU-93" value="Monitor Overall System Metrics" style="ellipse;whiteSpace=wrap;html=1;" vertex="1" parent="1">
          <mxGeometry x="970" y="1050" width="120" height="70" as="geometry" />
        </mxCell>
        <mxCell id="fpoi1ZFlEfsYuB7YviZU-96" value="" style="endArrow=none;html=1;rounded=0;entryX=0.45;entryY=0.986;entryDx=0;entryDy=0;entryPerimeter=0;exitX=0.5;exitY=0;exitDx=0;exitDy=0;" edge="1" parent="1" source="fpoi1ZFlEfsYuB7YviZU-92" target="fpoi1ZFlEfsYuB7YviZU-90">
          <mxGeometry width="50" height="50" relative="1" as="geometry">
            <mxPoint x="830" y="1100" as="sourcePoint" />
            <mxPoint x="880" y="1050" as="targetPoint" />
          </mxGeometry>
        </mxCell>
        <mxCell id="fpoi1ZFlEfsYuB7YviZU-97" value="" style="endArrow=none;html=1;rounded=0;entryX=-0.025;entryY=0.6;entryDx=0;entryDy=0;entryPerimeter=0;exitX=1;exitY=0.5;exitDx=0;exitDy=0;" edge="1" parent="1" source="fpoi1ZFlEfsYuB7YviZU-92" target="fpoi1ZFlEfsYuB7YviZU-93">
          <mxGeometry width="50" height="50" relative="1" as="geometry">
            <mxPoint x="830" y="1100" as="sourcePoint" />
            <mxPoint x="880" y="1050" as="targetPoint" />
          </mxGeometry>
        </mxCell>
        <mxCell id="fpoi1ZFlEfsYuB7YviZU-98" value="" style="endArrow=none;html=1;rounded=0;entryX=0;entryY=0.3333333333333333;entryDx=0;entryDy=0;entryPerimeter=0;exitX=0.5;exitY=0;exitDx=0;exitDy=0;" edge="1" parent="1" source="fpoi1ZFlEfsYuB7YviZU-90" target="fpoi1ZFlEfsYuB7YviZU-88">
          <mxGeometry width="50" height="50" relative="1" as="geometry">
            <mxPoint x="830" y="870" as="sourcePoint" />
            <mxPoint x="880" y="820" as="targetPoint" />
          </mxGeometry>
        </mxCell>
        <mxCell id="fpoi1ZFlEfsYuB7YviZU-99" value="&amp;lt;&amp;lt;include&amp;gt;&amp;gt;" style="endArrow=open;endSize=12;dashed=1;html=1;rounded=0;exitX=1;exitY=0.5;exitDx=0;exitDy=0;entryX=0.008;entryY=0.588;entryDx=0;entryDy=0;entryPerimeter=0;" edge="1" parent="1" source="fpoi1ZFlEfsYuB7YviZU-90" target="fpoi1ZFlEfsYuB7YviZU-91">
          <mxGeometry x="-0.0019" y="-24" width="160" relative="1" as="geometry">
            <mxPoint x="770" y="840" as="sourcePoint" />
            <mxPoint x="930" y="840" as="targetPoint" />
            <mxPoint as="offset" />
          </mxGeometry>
        </mxCell>
        <mxCell id="fpoi1ZFlEfsYuB7YviZU-101" value="" style="swimlane;startSize=0;" vertex="1" parent="1">
          <mxGeometry x="50" y="40" width="1450" height="1130" as="geometry" />
        </mxCell>
        <mxCell id="fpoi1ZFlEfsYuB7YviZU-102" value="" style="endArrow=none;html=1;rounded=0;entryX=0.5;entryY=0;entryDx=0;entryDy=0;exitX=0;exitY=0.3333333333333333;exitDx=0;exitDy=0;exitPerimeter=0;" edge="1" parent="1" source="fpoi1ZFlEfsYuB7YviZU-54" target="fpoi1ZFlEfsYuB7YviZU-56">
          <mxGeometry width="50" height="50" relative="1" as="geometry">
            <mxPoint x="830" y="130" as="sourcePoint" />
            <mxPoint x="880" y="80" as="targetPoint" />
          </mxGeometry>
        </mxCell>
      </root>
    </mxGraphModel>
  </diagram>
</mxfile>
